<svg xmlns="http://www.w3.org/2000/svg" viewBox="0 0 512 512">
  <rect width="512" height="512" fill="#3478f6"/>
  <path transform="translate(100, 100) scale(0.6)" d="M400 0H112C76.7 0 48 28.7 48 64V448c0 35.3 28.7 64 64 64H400c35.3 0 64-28.7 64-64V64c0-35.3-28.7-64-64-64zM152 64H360c4.4 0 8 3.6 8 8v104c0 4.4-3.6 8-8 8H152c-4.4 0-8-3.6-8-8V72c0-4.4 3.6-8 8-8zM208 384c0 8.8-7.2 16-16 16H144c-8.8 0-16-7.2-16-16V336c0-8.8 7.2-16 16-16h48c8.8 0 16 7.2 16 16v48zm0-112c0 8.8-7.2 16-16 16H144c-8.8 0-16-7.2-16-16V224c0-8.8 7.2-16 16-16h48c8.8 0 16 7.2 16 16v48zM312 384c0 8.8-7.2 16-16 16H248c-8.8 0-16-7.2-16-16V336c0-8.8 7.2-16 16-16h48c8.8 0 16 7.2 16 16v48zm0-112c0 8.8-7.2 16-16 16H248c-8.8 0-16-7.2-16-16V224c0-8.8 7.2-16 16-16h48c8.8 0 16 7.2 16 16v48zm104 112c0 8.8-7.2 16-16 16H352c-8.8 0-16-7.2-16-16V224c0-8.8 7.2-16 16-16h48c8.8 0 16 7.2 16 16v176z" fill="#ffffff" />
</svg>
